<svg width="26" height="46" viewBox="0 0 26 46" fill="none" xmlns="http://www.w3.org/2000/svg">
<path d="M25.0058 44.9875C25.6424 44.339 26 43.4595 26 42.5425C26 41.6255 25.6424 40.746 25.0058 40.0975L8.19668 22.9791L25.0058 5.86075C25.6243 5.20852 25.9666 4.33495 25.9589 3.42821C25.9511 2.52146 25.594 1.65409 24.9644 1.0129C24.3348 0.371708 23.4831 0.00801086 22.5927 0.000133514C21.7024 -0.00774765 20.8446 0.340824 20.2041 0.970776L0.994237 20.5341C0.357627 21.1827 0 22.0621 0 22.9791C0 23.8961 0.357627 24.7756 0.994237 25.4241L20.2041 44.9875C20.8409 45.6358 21.7045 46 22.6049 46C23.5054 46 24.369 45.6358 25.0058 44.9875Z" fill="#101351"/>
</svg>
