<svg width="16" height="28" viewBox="0 0 16 28" fill="none" xmlns="http://www.w3.org/2000/svg">
<path d="M15.3882 27.3837C15.7799 26.9889 16 26.4536 16 25.8954C16 25.3372 15.7799 24.8019 15.3882 24.4072L5.04411 13.9873L15.3882 3.56741C15.7688 3.1704 15.9794 2.63866 15.9747 2.08673C15.9699 1.5348 15.7502 1.00684 15.3627 0.616547C14.9753 0.226257 14.4511 0.00487709 13.9032 8.01086e-05C13.3553 -0.00471497 12.8274 0.207458 12.4333 0.590906L0.611838 12.499C0.220078 12.8938 0 13.4291 0 13.9873C0 14.5455 0.220078 15.0808 0.611838 15.4755L12.4333 27.3837C12.8252 27.7783 13.3566 28 13.9107 28C14.4649 28 14.9963 27.7783 15.3882 27.3837Z" fill="white"/>
</svg>
