<svg width="9" height="16" viewBox="0 0 9 16" fill="none" xmlns="http://www.w3.org/2000/svg">
<path d="M0.344159 15.6478C0.123794 15.4222 0 15.1163 0 14.7974C0 14.4784 0.123794 14.1725 0.344159 13.947L6.16269 7.99274L0.344159 2.03852C0.130039 1.81166 0.0115595 1.50781 0.0142374 1.19242C0.0169153 0.877029 0.140537 0.575334 0.358478 0.352312C0.576417 0.12929 0.871238 0.00278568 1.17944 4.57764e-05C1.48764 -0.00269508 1.78456 0.118547 2.00626 0.33766L8.65584 7.14231C8.87621 7.36788 9 7.67378 9 7.99274C9 8.3117 8.87621 8.6176 8.65584 8.84317L2.00626 15.6478C1.78583 15.8733 1.4869 16 1.17521 16C0.863519 16 0.56459 15.8733 0.344159 15.6478Z" fill="white"/>
</svg>
