<svg width="32" height="32" viewBox="0 0 32 32" fill="none" xmlns="http://www.w3.org/2000/svg">
<path d="M20.4145 6.08636C19.4759 5.13089 18.3572 4.37075 17.123 3.84982C15.8888 3.3289 14.5636 3.05753 13.2239 3.05138C11.8842 3.04522 10.5565 3.30441 9.31758 3.81398C8.07865 4.32354 6.95301 5.07338 6.00568 6.02019C5.05834 6.967 4.30808 8.09201 3.79824 9.33024C3.28839 10.5685 3.02905 11.8954 3.03521 13.2344C3.04136 14.5733 3.31289 15.8978 3.8341 17.1313C4.35531 18.3648 5.11588 19.4829 6.07189 20.421C7.97979 22.2931 10.5502 23.3365 13.2239 23.3242C15.8976 23.3119 18.4583 22.245 20.3489 20.3554C22.2395 18.4658 23.3071 15.9066 23.3194 13.2344C23.3317 10.5622 22.2877 7.9932 20.4145 6.08636ZM3.86557 3.88128C6.25728 1.49149 9.4721 0.105146 12.8526 0.00573932C16.2331 -0.0936672 19.5239 1.10137 22.0521 3.34649C24.5802 5.5916 26.1548 8.71717 26.4536 12.084C26.7525 15.4509 25.7532 18.8047 23.66 21.4596L32 29.7949L29.7937 32L21.4537 23.6647C18.7964 25.749 15.4437 26.7415 12.0793 26.4399C8.7149 26.1382 5.5924 24.5651 3.34875 22.0414C1.1051 19.5177 -0.0906712 16.2336 0.00536756 12.859C0.101406 9.48432 1.48202 6.27343 3.86557 3.88128Z" fill="#838383"/>
</svg>
